<svg xmlns="http://www.w3.org/2000/svg" xmlns:xlink="http://www.w3.org/1999/xlink" version="1.1" x="0px" y="0px" viewBox="0 0 100 125" enable-background="new 0 0 100 100" xml:space="preserve"><path d="M88.6,79c-29.2-8.5-59.2-24.6-69-55.2c3.7,1.6,7.4,3.2,11.2,4.8c2.3,1,4.3-2.4,2-3.4c-6.1-2.6-12.2-5.2-18.4-7.9  c-2.2-1-4.2,2.2-2.2,3.3c-0.2,0.3-0.4,0.6-0.4,1.1c-0.3,4.8-0.7,9.6-1,14.3c-0.7,2.9-1,5.8-0.6,8.9c0.3,2.5,3.8,2.6,3.9,0  c0.2-2.7,0.4-5.5,0.6-8.2c0.1-0.5,0.2-1,0.4-1.5c0.2-0.6,0.1-1.2-0.2-1.6c0.2-3.2,0.4-6.4,0.7-9.6c9.9,32.4,41.2,49.7,72,58.7  C90,83.5,91,79.7,88.6,79z"/></svg>